solid blemqttproxy_3d
facet normal 2.4784861663018662e-17 1.0 0.0
  outer loop
    vertex 0.10703534853410332 -0.022977078436765018 6.9
    vertex 1.1070353485341007 -0.022977078436765018 4.900000000000001
    vertex 0.10703534853410332 -0.022977078436765018 4.900000000000001
  endloop
endfacet
facet normal 2.4784861663018662e-17 1.0 0.0
  outer loop
    vertex 1.1070353485341007 -0.022977078436765018 4.900000000000001
    vertex 0.10703534853410332 -0.022977078436765018 6.9
    vertex 2.107035348534101 -0.022977078436765018 4.900000000000001
  endloop
endfacet
facet normal 2.4784861663018662e-17 1.0 0.0
  outer loop
    vertex 2.107035348534101 -0.022977078436765018 4.900000000000001
    vertex 0.10703534853410332 -0.022977078436765018 6.9
    vertex 2.107035348534101 -0.022977078436765018 6.9
  endloop
endfacet
facet normal -1.3636795984060014e-32 -1.0 -2.819966482547899e-15
  outer loop
    vertex 27.30703534853401 64.17702292156324 6.9
    vertex 25.30703534853401 64.17702292156325 4.900000000000001
    vertex 27.30703534853401 64.17702292156324 4.900000000000001
  endloop
endfacet
facet normal -1.3636795984060014e-32 -1.0 -2.819966482547899e-15
  outer loop
    vertex 25.30703534853401 64.17702292156325 4.900000000000001
    vertex 27.30703534853401 64.17702292156324 6.9
    vertex 2.1070353485341022 64.17702292156325 4.900000000000001
  endloop
endfacet
facet normal -1.3636795984060014e-32 -1.0 -2.819966482547899e-15
  outer loop
    vertex 2.1070353485341022 64.17702292156325 4.900000000000001
    vertex 27.30703534853401 64.17702292156324 6.9
    vertex 0.10703534853410332 64.17702292156324 4.900000000000001
  endloop
endfacet
facet normal -1.3636795984060014e-32 -1.0 -2.819966482547899e-15
  outer loop
    vertex 0.10703534853410332 64.17702292156324 4.900000000000001
    vertex 27.30703534853401 64.17702292156324 6.9
    vertex 0.10703534853410332 64.17702292156324 6.9
  endloop
endfacet
facet normal -1.899223115940132e-18 1.0 0.0
  outer loop
    vertex 2.107035348534101 -0.022977078436765018 6.9
    vertex 25.30703534853401 -0.022977078436765018 4.900000000000001
    vertex 2.107035348534101 -0.022977078436765018 4.900000000000001
  endloop
endfacet
facet normal -1.899223115940132e-18 1.0 0.0
  outer loop
    vertex 25.30703534853401 -0.022977078436765018 4.900000000000001
    vertex 2.107035348534101 -0.022977078436765018 6.9
    vertex 25.30703534853401 -0.022977078436765018 6.9
  endloop
endfacet
facet normal -1.0 -0.0 -0.0
  outer loop
    vertex 27.30703534853401 53.55488944157863 6.9
    vertex 27.30703534853401 28.569335737861966 4.900000000000001
    vertex 27.30703534853401 28.569335737861966 6.9
  endloop
endfacet
facet normal -1.0 -0.0 -0.0
  outer loop
    vertex 27.30703534853401 28.569335737861966 4.900000000000001
    vertex 27.30703534853401 53.55488944157863 6.9
    vertex 27.30703534853401 53.55488944157863 4.900000000000001
  endloop
endfacet
facet normal 0.0 0.0 1.0
  outer loop
    vertex 27.30703534853401 -0.022977078436765018 4.900000000000001
    vertex 26.307035348534015 28.569335737861966 4.900000000000001
    vertex 26.307035348534015 -0.022977078436765018 4.900000000000001
  endloop
endfacet
facet normal 0.0 0.0 1.0
  outer loop
    vertex 26.307035348534015 28.569335737861966 4.900000000000001
    vertex 27.30703534853401 -0.022977078436765018 4.900000000000001
    vertex 27.30703534853401 28.569335737861966 4.900000000000001
  endloop
endfacet
facet normal 0.0 0.0 1.0
  outer loop
    vertex 27.30703534853401 53.55488944157863 4.900000000000001
    vertex 26.307035348534015 63.17702292156326 4.900000000000001
    vertex 26.307035348534015 53.55488944157863 4.900000000000001
  endloop
endfacet
facet normal 0.0 0.0 1.0
  outer loop
    vertex 26.307035348534015 63.17702292156326 4.900000000000001
    vertex 25.30703534853401 64.17702292156325 4.900000000000001
    vertex 25.30703534853401 63.17702292156326 4.900000000000001
  endloop
endfacet
facet normal 0.0 0.0 1.0
  outer loop
    vertex 25.30703534853401 64.17702292156325 4.900000000000001
    vertex 26.307035348534015 63.17702292156326 4.900000000000001
    vertex 27.30703534853401 64.17702292156324 4.900000000000001
  endloop
endfacet
facet normal 0.0 0.0 1.0
  outer loop
    vertex 27.30703534853401 64.17702292156324 4.900000000000001
    vertex 26.307035348534015 63.17702292156326 4.900000000000001
    vertex 27.30703534853401 53.55488944157863 4.900000000000001
  endloop
endfacet
facet normal 0.0 0.0 1.0
  outer loop
    vertex -0.8929646514658991 -2.0229770784367647 6.9
    vertex 0.10703534853410332 -0.022977078436765018 6.9
    vertex -0.8929646514658977 65.17702292156324 6.9
  endloop
endfacet
facet normal 0.0 0.0 1.0
  outer loop
    vertex 0.10703534853410332 -0.022977078436765018 6.9
    vertex -0.8929646514658991 -2.0229770784367647 6.9
    vertex 28.307035348534015 -2.0229770784367647 6.9
  endloop
endfacet
facet normal 0.0 0.0 1.0
  outer loop
    vertex 0.10703534853410332 -0.022977078436765018 6.9
    vertex 28.307035348534015 -2.0229770784367647 6.9
    vertex 2.107035348534101 -0.022977078436765018 6.9
  endloop
endfacet
facet normal 0.0 0.0 1.0
  outer loop
    vertex 2.107035348534101 -0.022977078436765018 6.9
    vertex 28.307035348534015 -2.0229770784367647 6.9
    vertex 25.30703534853401 -0.022977078436765018 6.9
  endloop
endfacet
facet normal 0.0 0.0 1.0
  outer loop
    vertex 25.30703534853401 -0.022977078436765018 6.9
    vertex 28.307035348534015 -2.0229770784367647 6.9
    vertex 27.30703534853401 -0.022977078436765018 6.9
  endloop
endfacet
facet normal 0.0 0.0 1.0
  outer loop
    vertex 27.30703534853401 -0.022977078436765018 6.9
    vertex 28.307035348534015 -2.0229770784367647 6.9
    vertex 27.30703534853401 28.569335737861966 6.9
  endloop
endfacet
facet normal 0.0 0.0 1.0
  outer loop
    vertex 27.30703534853401 28.569335737861966 6.9
    vertex 28.307035348534015 -2.0229770784367647 6.9
    vertex 27.30703534853401 53.55488944157863 6.9
  endloop
endfacet
facet normal 0.0 0.0 1.0
  outer loop
    vertex 27.30703534853401 53.55488944157863 6.9
    vertex 28.307035348534015 -2.0229770784367647 6.9
    vertex 27.30703534853401 64.17702292156324 6.9
  endloop
endfacet
facet normal 0.0 0.0 1.0
  outer loop
    vertex -0.8929646514658977 65.17702292156324 6.9
    vertex 0.10703534853410332 64.17702292156324 6.9
    vertex 28.307035348534015 65.17702292156324 6.9
  endloop
endfacet
facet normal 0.0 0.0 1.0
  outer loop
    vertex 0.10703534853410332 64.17702292156324 6.9
    vertex -0.8929646514658977 65.17702292156324 6.9
    vertex 0.10703534853410332 -0.022977078436765018 6.9
  endloop
endfacet
facet normal 0.0 0.0 1.0
  outer loop
    vertex 28.307035348534015 65.17702292156324 6.9
    vertex 0.10703534853410332 64.17702292156324 6.9
    vertex 27.30703534853401 64.17702292156324 6.9
  endloop
endfacet
facet normal 0.0 0.0 1.0
  outer loop
    vertex 28.307035348534015 65.17702292156324 6.9
    vertex 27.30703534853401 64.17702292156324 6.9
    vertex 28.307035348534015 -2.0229770784367647 6.9
  endloop
endfacet
facet normal 0.0 0.0 -1.0
  outer loop
    vertex -0.8929646514658977 65.17702292156324 -3.499999999999995
    vertex 0.10703534853410226 64.17702292156325 -3.499999999999995
    vertex 0.10703534853410085 -0.022977078436765018 -3.499999999999995
  endloop
endfacet
facet normal 0.0 0.0 -1.0
  outer loop
    vertex 0.10703534853410226 64.17702292156325 -3.499999999999995
    vertex -0.8929646514658977 65.17702292156324 -3.499999999999995
    vertex 5.36048320269442 65.17702292156324 -3.499999999999995
  endloop
endfacet
facet normal 0.0 0.0 -1.0
  outer loop
    vertex 0.10703534853410226 64.17702292156325 -3.499999999999995
    vertex 5.36048320269442 65.17702292156324 -3.499999999999995
    vertex 5.360483202694422 64.17702292156325 -3.499999999999995
  endloop
endfacet
facet normal 0.0 0.0 -1.0
  outer loop
    vertex 28.307035348534015 65.17702292156324 -3.499999999999995
    vertex 13.7070353485341 64.17702292156325 -3.499999999999995
    vertex 13.7070353485341 65.17702292156324 -3.499999999999995
  endloop
endfacet
facet normal 0.0 0.0 -1.0
  outer loop
    vertex 13.7070353485341 64.17702292156325 -3.499999999999995
    vertex 28.307035348534015 65.17702292156324 -3.499999999999995
    vertex 27.30703534853401 64.17702292156325 -3.499999999999995
  endloop
endfacet
facet normal 0.0 0.0 -1.0
  outer loop
    vertex 27.30703534853401 64.17702292156325 -3.499999999999995
    vertex 28.307035348534015 65.17702292156324 -3.499999999999995
    vertex 27.30703534853401 -0.022977078436765018 -3.499999999999995
  endloop
endfacet
facet normal 0.0 0.0 -1.0
  outer loop
    vertex -0.8929646514658991 -2.0229770784367647 -3.499999999999995
    vertex 0.10703534853410085 -0.022977078436765018 -3.499999999999995
    vertex 28.307035348534015 -2.0229770784367647 -3.499999999999995
  endloop
endfacet
facet normal 0.0 0.0 -1.0
  outer loop
    vertex 0.10703534853410085 -0.022977078436765018 -3.499999999999995
    vertex -0.8929646514658991 -2.0229770784367647 -3.499999999999995
    vertex -0.8929646514658977 65.17702292156324 -3.499999999999995
  endloop
endfacet
facet normal 0.0 0.0 -1.0
  outer loop
    vertex 28.307035348534015 -2.0229770784367647 -3.499999999999995
    vertex 0.10703534853410085 -0.022977078436765018 -3.499999999999995
    vertex 27.30703534853401 -0.022977078436765018 -3.499999999999995
  endloop
endfacet
facet normal 0.0 0.0 -1.0
  outer loop
    vertex 28.307035348534015 -2.0229770784367647 -3.499999999999995
    vertex 27.30703534853401 -0.022977078436765018 -3.499999999999995
    vertex 28.307035348534015 65.17702292156324 -3.499999999999995
  endloop
endfacet
facet normal -1.0 -0.0 -0.0
  outer loop
    vertex 27.30703534853401 64.17702292156324 6.9
    vertex 27.30703534853401 53.55488944157863 4.900000000000001
    vertex 27.30703534853401 53.55488944157863 6.9
  endloop
endfacet
facet normal -1.0 -0.0 -0.0
  outer loop
    vertex 27.30703534853401 53.55488944157863 4.900000000000001
    vertex 27.30703534853401 64.17702292156324 6.9
    vertex 27.30703534853401 64.17702292156324 4.900000000000001
  endloop
endfacet
facet normal 0.0 -1.0 0.0
  outer loop
    vertex 27.30703534853401 53.55488944157863 4.900000000000001
    vertex 26.307035348534015 53.55488944157863 1.7000000000000004
    vertex 27.30703534853401 53.55488944157863 1.7000000000000004
  endloop
endfacet
facet normal 0.0 -1.0 0.0
  outer loop
    vertex 26.307035348534015 53.55488944157863 1.7000000000000004
    vertex 27.30703534853401 53.55488944157863 4.900000000000001
    vertex 26.307035348534015 53.55488944157863 4.900000000000001
  endloop
endfacet
facet normal -0.0 -0.0 -1.0
  outer loop
    vertex 27.30703534853401 28.569335737861966 1.7000000000000004
    vertex 26.307035348534015 -0.022977078436765018 1.7000000000000004
    vertex 26.307035348534015 28.569335737861966 1.7000000000000004
  endloop
endfacet
facet normal -0.0 -0.0 -1.0
  outer loop
    vertex 26.307035348534015 -0.022977078436765018 1.7000000000000004
    vertex 27.30703534853401 28.569335737861966 1.7000000000000004
    vertex 27.30703534853401 -0.022977078436765018 1.7000000000000004
  endloop
endfacet
facet normal -1.0 -0.0 -0.0
  outer loop
    vertex 27.30703534853401 28.569335737861966 6.9
    vertex 27.30703534853401 -0.022977078436765018 4.900000000000001
    vertex 27.30703534853401 -0.022977078436765018 6.9
  endloop
endfacet
facet normal -1.0 -0.0 -0.0
  outer loop
    vertex 27.30703534853401 -0.022977078436765018 4.900000000000001
    vertex 27.30703534853401 28.569335737861966 6.9
    vertex 27.30703534853401 28.569335737861966 4.900000000000001
  endloop
endfacet
facet normal 0.0 1.0 0.0
  outer loop
    vertex 26.307035348534015 28.569335737861966 4.900000000000001
    vertex 27.30703534853401 28.569335737861966 1.7000000000000004
    vertex 26.307035348534015 28.569335737861966 1.7000000000000004
  endloop
endfacet
facet normal 0.0 1.0 0.0
  outer loop
    vertex 27.30703534853401 28.569335737861966 1.7000000000000004
    vertex 26.307035348534015 28.569335737861966 4.900000000000001
    vertex 27.30703534853401 28.569335737861966 4.900000000000001
  endloop
endfacet
facet normal -1.0 2.0674241074398076e-17 0.0
  outer loop
    vertex -0.8929646514658977 65.17702292156324 6.9
    vertex -0.8929646514658991 -2.0229770784367647 -3.499999999999995
    vertex -0.8929646514658991 -2.0229770784367647 6.9
  endloop
endfacet
facet normal -1.0 2.0674241074398076e-17 0.0
  outer loop
    vertex -0.8929646514658991 -2.0229770784367647 -3.499999999999995
    vertex -0.8929646514658977 65.17702292156324 6.9
    vertex -0.8929646514658977 65.17702292156324 -3.499999999999995
  endloop
endfacet
facet normal -0.0 -1.0 -0.0
  outer loop
    vertex 28.307035348534015 -2.0229770784367647 6.9
    vertex -0.8929646514658991 -2.0229770784367647 -3.499999999999995
    vertex 28.307035348534015 -2.0229770784367647 -3.499999999999995
  endloop
endfacet
facet normal -0.0 -1.0 -0.0
  outer loop
    vertex -0.8929646514658991 -2.0229770784367647 -3.499999999999995
    vertex 28.307035348534015 -2.0229770784367647 6.9
    vertex -0.8929646514658991 -2.0229770784367647 6.9
  endloop
endfacet
facet normal 0.0 1.0 0.0
  outer loop
    vertex -0.8929646514658977 65.17702292156324 6.9
    vertex 5.36048320269442 65.17702292156324 -3.499999999999995
    vertex -0.8929646514658977 65.17702292156324 -3.499999999999995
  endloop
endfacet
facet normal 0.0 1.0 0.0
  outer loop
    vertex 5.36048320269442 65.17702292156324 -3.499999999999995
    vertex -0.8929646514658977 65.17702292156324 6.9
    vertex 5.36048320269442 65.17702292156324 7.049916206369744e-16
  endloop
endfacet
facet normal 0.0 1.0 0.0
  outer loop
    vertex 5.36048320269442 65.17702292156324 7.049916206369744e-16
    vertex -0.8929646514658977 65.17702292156324 6.9
    vertex 13.7070353485341 65.17702292156324 7.049916206369744e-16
  endloop
endfacet
facet normal 0.0 1.0 0.0
  outer loop
    vertex 13.7070353485341 65.17702292156324 7.049916206369744e-16
    vertex 28.307035348534015 65.17702292156324 -3.499999999999995
    vertex 13.7070353485341 65.17702292156324 -3.499999999999995
  endloop
endfacet
facet normal 0.0 1.0 0.0
  outer loop
    vertex 28.307035348534015 65.17702292156324 -3.499999999999995
    vertex 13.7070353485341 65.17702292156324 7.049916206369744e-16
    vertex 28.307035348534015 65.17702292156324 6.9
  endloop
endfacet
facet normal 0.0 1.0 0.0
  outer loop
    vertex 28.307035348534015 65.17702292156324 6.9
    vertex 13.7070353485341 65.17702292156324 7.049916206369744e-16
    vertex -0.8929646514658977 65.17702292156324 6.9
  endloop
endfacet
facet normal -2.7538735181131823e-18 1.0 0.0
  outer loop
    vertex 25.30703534853401 -0.022977078436765018 6.9
    vertex 26.307035348534015 -0.022977078436765018 4.900000000000001
    vertex 25.30703534853401 -0.022977078436765018 4.900000000000001
  endloop
endfacet
facet normal -2.7538735181131823e-18 1.0 0.0
  outer loop
    vertex 26.307035348534015 -0.022977078436765018 4.900000000000001
    vertex 25.30703534853401 -0.022977078436765018 6.9
    vertex 27.30703534853401 -0.022977078436765018 4.900000000000001
  endloop
endfacet
facet normal -2.7538735181131823e-18 1.0 0.0
  outer loop
    vertex 27.30703534853401 -0.022977078436765018 4.900000000000001
    vertex 25.30703534853401 -0.022977078436765018 6.9
    vertex 27.30703534853401 -0.022977078436765018 6.9
  endloop
endfacet
facet normal 1.0 0.0 0.0
  outer loop
    vertex 0.10703534853410332 64.17702292156324 4.900000000000001
    vertex 0.10703534853410332 -0.022977078436765018 6.9
    vertex 0.10703534853410332 -0.022977078436765018 4.900000000000001
  endloop
endfacet
facet normal 1.0 0.0 0.0
  outer loop
    vertex 0.10703534853410332 -0.022977078436765018 6.9
    vertex 0.10703534853410332 64.17702292156324 4.900000000000001
    vertex 0.10703534853410332 64.17702292156324 6.9
  endloop
endfacet
facet normal -0.0 -0.0 -1.0
  outer loop
    vertex 27.30703534853401 64.17702292156325 1.7000000000000004
    vertex 25.30703534853401 63.17702292156326 1.7000000000000004
    vertex 25.30703534853401 64.17702292156325 1.7000000000000004
  endloop
endfacet
facet normal -0.0 -0.0 -1.0
  outer loop
    vertex 25.30703534853401 63.17702292156326 1.7000000000000004
    vertex 27.30703534853401 64.17702292156325 1.7000000000000004
    vertex 26.307035348534015 63.17702292156326 1.7000000000000004
  endloop
endfacet
facet normal -0.0 -0.0 -1.0
  outer loop
    vertex 26.307035348534015 63.17702292156326 1.7000000000000004
    vertex 27.30703534853401 64.17702292156325 1.7000000000000004
    vertex 26.307035348534015 53.55488944157863 1.7000000000000004
  endloop
endfacet
facet normal -0.0 -0.0 -1.0
  outer loop
    vertex 26.307035348534015 53.55488944157863 1.7000000000000004
    vertex 27.30703534853401 64.17702292156325 1.7000000000000004
    vertex 27.30703534853401 53.55488944157863 1.7000000000000004
  endloop
endfacet
facet normal 1.0 0.0 0.0
  outer loop
    vertex 28.307035348534015 65.17702292156324 -3.499999999999995
    vertex 28.307035348534015 -2.0229770784367647 6.9
    vertex 28.307035348534015 -2.0229770784367647 -3.499999999999995
  endloop
endfacet
facet normal 1.0 0.0 0.0
  outer loop
    vertex 28.307035348534015 -2.0229770784367647 6.9
    vertex 28.307035348534015 65.17702292156324 -3.499999999999995
    vertex 28.307035348534015 65.17702292156324 6.9
  endloop
endfacet
facet normal 0.0 0.0 -1.0
  outer loop
    vertex 0.10703534853410226 64.17702292156325 1.7000000000000004
    vertex 1.1070353485341007 -0.022977078436765018 1.7000000000000004
    vertex 0.10703534853410085 -0.022977078436765018 1.7000000000000004
  endloop
endfacet
facet normal 0.0 0.0 -1.0
  outer loop
    vertex 1.1070353485341007 -0.022977078436765018 1.7000000000000004
    vertex 0.10703534853410226 64.17702292156325 1.7000000000000004
    vertex 1.1070353485341022 63.17702292156326 1.7000000000000004
  endloop
endfacet
facet normal 0.0 0.0 -1.0
  outer loop
    vertex 1.1070353485341022 63.17702292156326 1.7000000000000004
    vertex 0.10703534853410226 64.17702292156325 1.7000000000000004
    vertex 2.1070353485341022 64.17702292156325 1.7000000000000004
  endloop
endfacet
facet normal 0.0 0.0 -1.0
  outer loop
    vertex 1.1070353485341022 63.17702292156326 1.7000000000000004
    vertex 2.1070353485341022 64.17702292156325 1.7000000000000004
    vertex 2.1070353485341022 63.17702292156326 1.7000000000000004
  endloop
endfacet
facet normal -1.0 0.0 0.0
  outer loop
    vertex 27.30703534853401 28.569335737861966 1.7000000000000004
    vertex 27.30703534853401 -0.022977078436765018 -0.09999999999999981
    vertex 27.30703534853401 -0.022977078436765018 1.7000000000000004
  endloop
endfacet
facet normal -1.0 0.0 0.0
  outer loop
    vertex 27.30703534853401 -0.022977078436765018 -0.09999999999999981
    vertex 27.30703534853401 28.569335737861966 1.7000000000000004
    vertex 27.30703534853401 1.977022921563235 -0.09999999999999981
  endloop
endfacet
facet normal -1.0 0.0 0.0
  outer loop
    vertex 27.30703534853401 1.977022921563235 -0.09999999999999981
    vertex 27.30703534853401 28.569335737861966 1.7000000000000004
    vertex 27.30703534853401 1.977022921563235 -1.5
  endloop
endfacet
facet normal -1.0 0.0 0.0
  outer loop
    vertex 27.30703534853401 53.55488944157863 4.900000000000001
    vertex 27.30703534853401 28.569335737861966 1.7000000000000004
    vertex 27.30703534853401 28.569335737861966 4.900000000000001
  endloop
endfacet
facet normal -1.0 0.0 0.0
  outer loop
    vertex 27.30703534853401 64.17702292156325 1.7000000000000004
    vertex 27.30703534853401 63.67702292156326 0.0
    vertex 27.30703534853401 53.55488944157863 1.7000000000000004
  endloop
endfacet
facet normal -1.0 0.0 0.0
  outer loop
    vertex 27.30703534853401 63.67702292156326 0.0
    vertex 27.30703534853401 64.17702292156325 1.7000000000000004
    vertex 27.30703534853401 64.17702292156325 0.0
  endloop
endfacet
facet normal -1.0 0.0 0.0
  outer loop
    vertex 27.30703534853401 1.977022921563235 -1.5
    vertex 27.30703534853401 -0.022977078436765018 -3.499999999999995
    vertex 27.30703534853401 -0.022977078436765018 -1.4999999999999998
  endloop
endfacet
facet normal -1.0 0.0 0.0
  outer loop
    vertex 27.30703534853401 -0.022977078436765018 -3.499999999999995
    vertex 27.30703534853401 1.977022921563235 -1.5
    vertex 27.30703534853401 64.17702292156325 -3.499999999999995
  endloop
endfacet
facet normal -1.0 0.0 0.0
  outer loop
    vertex 27.30703534853401 64.17702292156325 -3.499999999999995
    vertex 27.30703534853401 1.977022921563235 -1.5
    vertex 27.30703534853401 28.569335737861966 1.7000000000000004
  endloop
endfacet
facet normal -1.0 0.0 0.0
  outer loop
    vertex 27.30703534853401 64.17702292156325 -3.499999999999995
    vertex 27.30703534853401 28.569335737861966 1.7000000000000004
    vertex 27.30703534853401 53.55488944157863 1.7000000000000004
  endloop
endfacet
facet normal -1.0 0.0 0.0
  outer loop
    vertex 27.30703534853401 53.55488944157863 1.7000000000000004
    vertex 27.30703534853401 28.569335737861966 1.7000000000000004
    vertex 27.30703534853401 53.55488944157863 4.900000000000001
  endloop
endfacet
facet normal -1.0 0.0 0.0
  outer loop
    vertex 27.30703534853401 64.17702292156325 -3.499999999999995
    vertex 27.30703534853401 53.55488944157863 1.7000000000000004
    vertex 27.30703534853401 63.67702292156326 -1.5000000000000007
  endloop
endfacet
facet normal -1.0 0.0 0.0
  outer loop
    vertex 27.30703534853401 63.67702292156326 -1.5000000000000007
    vertex 27.30703534853401 53.55488944157863 1.7000000000000004
    vertex 27.30703534853401 63.67702292156326 0.0
  endloop
endfacet
facet normal -1.0 0.0 0.0
  outer loop
    vertex 27.30703534853401 64.17702292156325 -3.499999999999995
    vertex 27.30703534853401 63.67702292156326 -1.5000000000000007
    vertex 27.30703534853401 64.17702292156325 -1.5000000000000007
  endloop
endfacet
facet normal 0.0 0.0 -1.0
  outer loop
    vertex 25.30703534853401 64.17702292156325 1.7000000000000004
    vertex 2.1070353485341022 63.17702292156326 1.7000000000000004
    vertex 2.1070353485341022 64.17702292156325 1.7000000000000004
  endloop
endfacet
facet normal 0.0 0.0 -1.0
  outer loop
    vertex 2.1070353485341022 63.17702292156326 1.7000000000000004
    vertex 25.30703534853401 64.17702292156325 1.7000000000000004
    vertex 25.30703534853401 63.17702292156326 1.7000000000000004
  endloop
endfacet
facet normal 1.0 3.524958103184899e-16 0.0
  outer loop
    vertex 5.36048320269442 65.17702292156324 -3.499999999999995
    vertex 5.360483202694422 64.17702292156325 7.049916206369744e-16
    vertex 5.360483202694422 64.17702292156325 -3.499999999999995
  endloop
endfacet
facet normal 1.0 3.524958103184899e-16 0.0
  outer loop
    vertex 5.360483202694422 64.17702292156325 7.049916206369744e-16
    vertex 5.36048320269442 65.17702292156324 -3.499999999999995
    vertex 5.36048320269442 65.17702292156324 7.049916206369744e-16
  endloop
endfacet
facet normal 0.0 -1.0 0.0
  outer loop
    vertex 26.307035348534015 63.17702292156326 4.900000000000001
    vertex 25.30703534853401 63.17702292156326 1.7000000000000004
    vertex 26.307035348534015 63.17702292156326 1.7000000000000004
  endloop
endfacet
facet normal 0.0 -1.0 0.0
  outer loop
    vertex 25.30703534853401 63.17702292156326 1.7000000000000004
    vertex 26.307035348534015 63.17702292156326 4.900000000000001
    vertex 2.1070353485341022 63.17702292156326 1.7000000000000004
  endloop
endfacet
facet normal 0.0 -1.0 0.0
  outer loop
    vertex 2.1070353485341022 63.17702292156326 1.7000000000000004
    vertex 26.307035348534015 63.17702292156326 4.900000000000001
    vertex 1.1070353485341022 63.17702292156326 1.7000000000000004
  endloop
endfacet
facet normal 0.0 -1.0 0.0
  outer loop
    vertex 1.1070353485341022 63.17702292156326 1.7000000000000004
    vertex 26.307035348534015 63.17702292156326 4.900000000000001
    vertex 1.1070353485341022 63.17702292156326 4.900000000000001
  endloop
endfacet
facet normal 0.0 -1.0 0.0
  outer loop
    vertex 1.1070353485341022 63.17702292156326 4.900000000000001
    vertex 26.307035348534015 63.17702292156326 4.900000000000001
    vertex 25.30703534853401 63.17702292156326 4.900000000000001
  endloop
endfacet
facet normal 0.0 -1.0 0.0
  outer loop
    vertex 1.1070353485341022 63.17702292156326 4.900000000000001
    vertex 25.30703534853401 63.17702292156326 4.900000000000001
    vertex 2.1070353485341022 63.17702292156326 4.900000000000001
  endloop
endfacet
facet normal 0.0 0.0 -1.0
  outer loop
    vertex 13.7070353485341 65.17702292156324 7.049916206369744e-16
    vertex 5.360483202694422 64.17702292156325 7.049916206369744e-16
    vertex 5.36048320269442 65.17702292156324 7.049916206369744e-16
  endloop
endfacet
facet normal 0.0 0.0 -1.0
  outer loop
    vertex 5.360483202694422 64.17702292156325 7.049916206369744e-16
    vertex 13.7070353485341 65.17702292156324 7.049916206369744e-16
    vertex 13.7070353485341 64.17702292156325 7.049916206369744e-16
  endloop
endfacet
facet normal 0.0 0.0 1.0
  outer loop
    vertex 1.1070353485341007 -0.022977078436765018 4.900000000000001
    vertex 0.10703534853410332 64.17702292156324 4.900000000000001
    vertex 0.10703534853410332 -0.022977078436765018 4.900000000000001
  endloop
endfacet
facet normal 0.0 0.0 1.0
  outer loop
    vertex 0.10703534853410332 64.17702292156324 4.900000000000001
    vertex 1.1070353485341007 -0.022977078436765018 4.900000000000001
    vertex 1.1070353485341022 63.17702292156326 4.900000000000001
  endloop
endfacet
facet normal 0.0 0.0 1.0
  outer loop
    vertex 0.10703534853410332 64.17702292156324 4.900000000000001
    vertex 1.1070353485341022 63.17702292156326 4.900000000000001
    vertex 2.1070353485341022 64.17702292156325 4.900000000000001
  endloop
endfacet
facet normal 0.0 0.0 1.0
  outer loop
    vertex 2.1070353485341022 64.17702292156325 4.900000000000001
    vertex 1.1070353485341022 63.17702292156326 4.900000000000001
    vertex 2.1070353485341022 63.17702292156326 4.900000000000001
  endloop
endfacet
facet normal 0.0 0.0 1.0
  outer loop
    vertex 25.30703534853401 63.17702292156326 4.900000000000001
    vertex 2.1070353485341022 64.17702292156325 4.900000000000001
    vertex 2.1070353485341022 63.17702292156326 4.900000000000001
  endloop
endfacet
facet normal 0.0 0.0 1.0
  outer loop
    vertex 2.1070353485341022 64.17702292156325 4.900000000000001
    vertex 25.30703534853401 63.17702292156326 4.900000000000001
    vertex 25.30703534853401 64.17702292156325 4.900000000000001
  endloop
endfacet
facet normal -1.0 -0.0 -0.0
  outer loop
    vertex 13.7070353485341 65.17702292156324 7.049916206369744e-16
    vertex 13.7070353485341 64.17702292156325 -3.499999999999995
    vertex 13.7070353485341 64.17702292156325 7.049916206369744e-16
  endloop
endfacet
facet normal -1.0 -0.0 -0.0
  outer loop
    vertex 13.7070353485341 64.17702292156325 -3.499999999999995
    vertex 13.7070353485341 65.17702292156324 7.049916206369744e-16
    vertex 13.7070353485341 65.17702292156324 -3.499999999999995
  endloop
endfacet
facet normal 1.0 -1.6635968119171864e-17 3.579320769064431e-18
  outer loop
    vertex 0.10703534853410085 -0.022977078436765018 -3.499999999999995
    vertex 0.10703534853410085 1.9770229215632342 -1.5000000000000004
    vertex 0.10703534853410085 -0.022977078436765722 -1.4999999999999998
  endloop
endfacet
facet normal 1.0 -1.6635968119171864e-17 3.579320769064431e-18
  outer loop
    vertex 0.10703534853410085 1.9770229215632342 -1.5000000000000004
    vertex 0.10703534853410085 -0.022977078436765018 -3.499999999999995
    vertex 0.10703534853410226 64.17702292156325 -3.499999999999995
  endloop
endfacet
facet normal 1.0 -1.6635968119171864e-17 3.579320769064431e-18
  outer loop
    vertex 0.10703534853410085 1.9770229215632342 -1.5000000000000004
    vertex 0.10703534853410226 64.17702292156325 -3.499999999999995
    vertex 0.10703534853410085 1.977022921563235 -0.10000000000000052
  endloop
endfacet
facet normal 1.0 -1.6635968119171864e-17 3.579320769064431e-18
  outer loop
    vertex 0.10703534853410085 1.977022921563235 -0.10000000000000052
    vertex 0.10703534853410226 64.17702292156325 -3.499999999999995
    vertex 0.10703534853410156 63.67702292156326 -1.5000000000000007
  endloop
endfacet
facet normal 1.0 -1.6635968119171864e-17 3.579320769064431e-18
  outer loop
    vertex 0.10703534853410156 63.67702292156326 -1.5000000000000007
    vertex 0.10703534853410226 64.17702292156325 -3.499999999999995
    vertex 0.10703534853410156 64.17702292156325 -1.5000000000000007
  endloop
endfacet
facet normal 1.0 -1.6635968119171864e-17 3.579320769064431e-18
  outer loop
    vertex 0.10703534853410085 1.977022921563235 -0.10000000000000052
    vertex 0.10703534853410085 -0.022977078436765018 1.7000000000000004
    vertex 0.10703534853410085 -0.022977078436765018 -0.09999999999999981
  endloop
endfacet
facet normal 1.0 -1.6635968119171864e-17 3.579320769064431e-18
  outer loop
    vertex 0.10703534853410085 -0.022977078436765018 1.7000000000000004
    vertex 0.10703534853410085 1.977022921563235 -0.10000000000000052
    vertex 0.10703534853410226 64.17702292156325 1.7000000000000004
  endloop
endfacet
facet normal 1.0 -1.6635968119171864e-17 3.579320769064431e-18
  outer loop
    vertex 0.10703534853410226 64.17702292156325 1.7000000000000004
    vertex 0.10703534853410085 1.977022921563235 -0.10000000000000052
    vertex 0.10703534853410156 63.67702292156326 0.0
  endloop
endfacet
facet normal 1.0 -1.6635968119171864e-17 3.579320769064431e-18
  outer loop
    vertex 0.10703534853410156 63.67702292156326 0.0
    vertex 0.10703534853410085 1.977022921563235 -0.10000000000000052
    vertex 0.10703534853410156 63.67702292156326 -1.5000000000000007
  endloop
endfacet
facet normal 1.0 -1.6635968119171864e-17 3.579320769064431e-18
  outer loop
    vertex 0.10703534853410226 64.17702292156325 1.7000000000000004
    vertex 0.10703534853410156 63.67702292156326 0.0
    vertex 0.10703534853410156 64.17702292156325 0.0
  endloop
endfacet
facet normal 6.884683795282953e-19 1.0 -2.7714068046195707e-16
  outer loop
    vertex 0.10703534853410085 1.977022921563235 -0.10000000000000052
    vertex 2.107035348534101 1.9770229215632342 -1.5000000000000004
    vertex 0.10703534853410085 1.9770229215632342 -1.5000000000000004
  endloop
endfacet
facet normal 6.884683795282953e-19 1.0 -2.7714068046195707e-16
  outer loop
    vertex 2.107035348534101 1.9770229215632342 -1.5000000000000004
    vertex 0.10703534853410085 1.977022921563235 -0.10000000000000052
    vertex 2.107035348534101 1.977022921563235 -0.10000000000000052
  endloop
endfacet
facet normal 0.0 2.771406804619571e-16 1.0
  outer loop
    vertex 2.107035348534101 -0.022977078436765018 -0.09999999999999981
    vertex 0.10703534853410085 1.977022921563235 -0.10000000000000052
    vertex 0.10703534853410085 -0.022977078436765018 -0.09999999999999981
  endloop
endfacet
facet normal 0.0 2.771406804619571e-16 1.0
  outer loop
    vertex 0.10703534853410085 1.977022921563235 -0.10000000000000052
    vertex 2.107035348534101 -0.022977078436765018 -0.09999999999999981
    vertex 2.107035348534101 1.977022921563235 -0.10000000000000052
  endloop
endfacet
facet normal 1.0 -6.884683795282954e-19 1.9243941610178867e-34
  outer loop
    vertex 2.107035348534101 1.9770229215632342 -1.5000000000000004
    vertex 2.107035348534101 -0.022977078436765018 -0.09999999999999981
    vertex 2.107035348534101 -0.022977078436765722 -1.4999999999999998
  endloop
endfacet
facet normal 1.0 -6.884683795282954e-19 1.9243941610178867e-34
  outer loop
    vertex 2.107035348534101 -0.022977078436765018 -0.09999999999999981
    vertex 2.107035348534101 1.9770229215632342 -1.5000000000000004
    vertex 2.107035348534101 1.977022921563235 -0.10000000000000052
  endloop
endfacet
facet normal -0.0 -2.771406804619571e-16 -1.0
  outer loop
    vertex 2.107035348534101 1.9770229215632342 -1.5000000000000004
    vertex 0.10703534853410085 -0.022977078436765722 -1.4999999999999998
    vertex 0.10703534853410085 1.9770229215632342 -1.5000000000000004
  endloop
endfacet
facet normal -0.0 -2.771406804619571e-16 -1.0
  outer loop
    vertex 0.10703534853410085 -0.022977078436765722 -1.4999999999999998
    vertex 2.107035348534101 1.9770229215632342 -1.5000000000000004
    vertex 2.107035348534101 -0.022977078436765722 -1.4999999999999998
  endloop
endfacet
facet normal -2.936850279472553e-18 1.0 -3.546031787283373e-17
  outer loop
    vertex 1.1070353485341007 -0.022977078436765018 4.900000000000001
    vertex 26.307035348534015 -0.022977078436765018 1.7000000000000004
    vertex 1.1070353485341007 -0.022977078436765018 1.7000000000000004
  endloop
endfacet
facet normal -2.936850279472553e-18 1.0 -3.546031787283373e-17
  outer loop
    vertex 26.307035348534015 -0.022977078436765018 1.7000000000000004
    vertex 1.1070353485341007 -0.022977078436765018 4.900000000000001
    vertex 26.307035348534015 -0.022977078436765018 4.900000000000001
  endloop
endfacet
facet normal -2.936850279472553e-18 1.0 -3.546031787283373e-17
  outer loop
    vertex 26.307035348534015 -0.022977078436765018 4.900000000000001
    vertex 1.1070353485341007 -0.022977078436765018 4.900000000000001
    vertex 2.107035348534101 -0.022977078436765018 4.900000000000001
  endloop
endfacet
facet normal -2.936850279472553e-18 1.0 -3.546031787283373e-17
  outer loop
    vertex 26.307035348534015 -0.022977078436765018 4.900000000000001
    vertex 2.107035348534101 -0.022977078436765018 4.900000000000001
    vertex 25.30703534853401 -0.022977078436765018 4.900000000000001
  endloop
endfacet
facet normal -2.936850279472553e-18 1.0 -3.546031787283373e-17
  outer loop
    vertex 0.10703534853410085 -0.022977078436765018 1.7000000000000004
    vertex 2.107035348534101 -0.022977078436765018 -0.09999999999999981
    vertex 0.10703534853410085 -0.022977078436765018 -0.09999999999999981
  endloop
endfacet
facet normal -2.936850279472553e-18 1.0 -3.546031787283373e-17
  outer loop
    vertex 2.107035348534101 -0.022977078436765018 -0.09999999999999981
    vertex 0.10703534853410085 -0.022977078436765018 1.7000000000000004
    vertex 25.30703534853401 -0.022977078436765018 -0.09999999999999981
  endloop
endfacet
facet normal -2.936850279472553e-18 1.0 -3.546031787283373e-17
  outer loop
    vertex 25.30703534853401 -0.022977078436765018 -0.09999999999999981
    vertex 0.10703534853410085 -0.022977078436765018 1.7000000000000004
    vertex 27.30703534853401 -0.022977078436765018 -0.09999999999999981
  endloop
endfacet
facet normal -2.936850279472553e-18 1.0 -3.546031787283373e-17
  outer loop
    vertex 27.30703534853401 -0.022977078436765018 -0.09999999999999981
    vertex 0.10703534853410085 -0.022977078436765018 1.7000000000000004
    vertex 27.30703534853401 -0.022977078436765018 1.7000000000000004
  endloop
endfacet
facet normal -2.936850279472553e-18 1.0 -3.546031787283373e-17
  outer loop
    vertex 27.30703534853401 -0.022977078436765018 1.7000000000000004
    vertex 0.10703534853410085 -0.022977078436765018 1.7000000000000004
    vertex 1.1070353485341007 -0.022977078436765018 1.7000000000000004
  endloop
endfacet
facet normal -2.936850279472553e-18 1.0 -3.546031787283373e-17
  outer loop
    vertex 27.30703534853401 -0.022977078436765018 1.7000000000000004
    vertex 1.1070353485341007 -0.022977078436765018 1.7000000000000004
    vertex 26.307035348534015 -0.022977078436765018 1.7000000000000004
  endloop
endfacet
facet normal -2.936850279472553e-18 1.0 -3.546031787283373e-17
  outer loop
    vertex 2.107035348534101 -0.022977078436765018 -0.09999999999999981
    vertex 25.30703534853401 -0.022977078436765722 -1.4999999999999998
    vertex 2.107035348534101 -0.022977078436765722 -1.4999999999999998
  endloop
endfacet
facet normal -2.936850279472553e-18 1.0 -3.546031787283373e-17
  outer loop
    vertex 25.30703534853401 -0.022977078436765722 -1.4999999999999998
    vertex 2.107035348534101 -0.022977078436765018 -0.09999999999999981
    vertex 25.30703534853401 -0.022977078436765018 -0.09999999999999981
  endloop
endfacet
facet normal -2.936850279472553e-18 1.0 -3.546031787283373e-17
  outer loop
    vertex 0.10703534853410085 -0.022977078436765722 -1.4999999999999998
    vertex 27.30703534853401 -0.022977078436765018 -3.499999999999995
    vertex 0.10703534853410085 -0.022977078436765018 -3.499999999999995
  endloop
endfacet
facet normal -2.936850279472553e-18 1.0 -3.546031787283373e-17
  outer loop
    vertex 27.30703534853401 -0.022977078436765018 -3.499999999999995
    vertex 0.10703534853410085 -0.022977078436765722 -1.4999999999999998
    vertex 27.30703534853401 -0.022977078436765018 -1.4999999999999998
  endloop
endfacet
facet normal -2.936850279472553e-18 1.0 -3.546031787283373e-17
  outer loop
    vertex 27.30703534853401 -0.022977078436765018 -1.4999999999999998
    vertex 0.10703534853410085 -0.022977078436765722 -1.4999999999999998
    vertex 2.107035348534101 -0.022977078436765722 -1.4999999999999998
  endloop
endfacet
facet normal -2.936850279472553e-18 1.0 -3.546031787283373e-17
  outer loop
    vertex 27.30703534853401 -0.022977078436765018 -1.4999999999999998
    vertex 2.107035348534101 -0.022977078436765722 -1.4999999999999998
    vertex 25.30703534853401 -0.022977078436765722 -1.4999999999999998
  endloop
endfacet
facet normal -1.4182448618282887e-16 1.0 -1.3769367590565906e-16
  outer loop
    vertex 25.30703534853401 1.977022921563235 -0.09999999999999981
    vertex 27.30703534853401 1.977022921563235 -1.5
    vertex 25.30703534853401 1.9770229215632342 -1.5
  endloop
endfacet
facet normal -1.4182448618282887e-16 1.0 -1.3769367590565906e-16
  outer loop
    vertex 27.30703534853401 1.977022921563235 -1.5
    vertex 25.30703534853401 1.977022921563235 -0.09999999999999981
    vertex 27.30703534853401 1.977022921563235 -0.09999999999999981
  endloop
endfacet
facet normal 3.8487883220357747e-32 -1.3769367590565906e-16 -1.0
  outer loop
    vertex 27.30703534853401 1.977022921563235 -1.5
    vertex 25.30703534853401 -0.022977078436765722 -1.4999999999999998
    vertex 25.30703534853401 1.9770229215632342 -1.5
  endloop
endfacet
facet normal 3.8487883220357747e-32 -1.3769367590565906e-16 -1.0
  outer loop
    vertex 25.30703534853401 -0.022977078436765722 -1.4999999999999998
    vertex 27.30703534853401 1.977022921563235 -1.5
    vertex 27.30703534853401 -0.022977078436765018 -1.4999999999999998
  endloop
endfacet
facet normal -1.0 -1.418244861828289e-16 3.905666967189013e-32
  outer loop
    vertex 25.30703534853401 -0.022977078436765018 -0.09999999999999981
    vertex 25.30703534853401 1.9770229215632342 -1.5
    vertex 25.30703534853401 -0.022977078436765722 -1.4999999999999998
  endloop
endfacet
facet normal -1.0 -1.418244861828289e-16 3.905666967189013e-32
  outer loop
    vertex 25.30703534853401 1.9770229215632342 -1.5
    vertex 25.30703534853401 -0.022977078436765018 -0.09999999999999981
    vertex 25.30703534853401 1.977022921563235 -0.09999999999999981
  endloop
endfacet
facet normal -5.687864515323804e-34 1.3769367590565906e-16 1.0
  outer loop
    vertex 27.30703534853401 -0.022977078436765018 -0.09999999999999981
    vertex 25.30703534853401 1.977022921563235 -0.09999999999999981
    vertex 25.30703534853401 -0.022977078436765018 -0.09999999999999981
  endloop
endfacet
facet normal -5.687864515323804e-34 1.3769367590565906e-16 1.0
  outer loop
    vertex 25.30703534853401 1.977022921563235 -0.09999999999999981
    vertex 27.30703534853401 -0.022977078436765018 -0.09999999999999981
    vertex 27.30703534853401 1.977022921563235 -0.09999999999999981
  endloop
endfacet
facet normal 0.0 -1.0 0.0
  outer loop
    vertex 27.30703534853401 63.67702292156326 0.0
    vertex 26.307035348534008 63.67702292156326 -1.5000000000000007
    vertex 27.30703534853401 63.67702292156326 -1.5000000000000007
  endloop
endfacet
facet normal 0.0 -1.0 0.0
  outer loop
    vertex 26.307035348534008 63.67702292156326 -1.5000000000000007
    vertex 27.30703534853401 63.67702292156326 0.0
    vertex 26.307035348534008 63.67702292156326 0.0
  endloop
endfacet
facet normal 0.0 0.0 1.0
  outer loop
    vertex 27.30703534853401 63.67702292156326 0.0
    vertex 26.307035348534008 64.17702292156325 0.0
    vertex 26.307035348534008 63.67702292156326 0.0
  endloop
endfacet
facet normal 0.0 0.0 1.0
  outer loop
    vertex 26.307035348534008 64.17702292156325 0.0
    vertex 27.30703534853401 63.67702292156326 0.0
    vertex 27.30703534853401 64.17702292156325 0.0
  endloop
endfacet
facet normal 0.0 -1.0 0.0
  outer loop
    vertex 27.30703534853401 64.17702292156325 1.7000000000000004
    vertex 26.307035348534008 64.17702292156325 0.0
    vertex 27.30703534853401 64.17702292156325 0.0
  endloop
endfacet
facet normal 0.0 -1.0 0.0
  outer loop
    vertex 26.307035348534008 64.17702292156325 0.0
    vertex 27.30703534853401 64.17702292156325 1.7000000000000004
    vertex 13.7070353485341 64.17702292156325 7.049916206369744e-16
  endloop
endfacet
facet normal 0.0 -1.0 0.0
  outer loop
    vertex 13.7070353485341 64.17702292156325 7.049916206369744e-16
    vertex 27.30703534853401 64.17702292156325 1.7000000000000004
    vertex 5.360483202694422 64.17702292156325 7.049916206369744e-16
  endloop
endfacet
facet normal 0.0 -1.0 0.0
  outer loop
    vertex 5.360483202694422 64.17702292156325 7.049916206369744e-16
    vertex 0.10703534853410226 64.17702292156325 -3.499999999999995
    vertex 5.360483202694422 64.17702292156325 -3.499999999999995
  endloop
endfacet
facet normal 0.0 -1.0 0.0
  outer loop
    vertex 0.10703534853410226 64.17702292156325 -3.499999999999995
    vertex 5.360483202694422 64.17702292156325 7.049916206369744e-16
    vertex 1.1070353485341047 64.17702292156325 -1.5000000000000007
  endloop
endfacet
facet normal 0.0 -1.0 0.0
  outer loop
    vertex 1.1070353485341047 64.17702292156325 -1.5000000000000007
    vertex 5.360483202694422 64.17702292156325 7.049916206369744e-16
    vertex 1.1070353485341047 64.17702292156325 0.0
  endloop
endfacet
facet normal 0.0 -1.0 0.0
  outer loop
    vertex 1.1070353485341047 64.17702292156325 0.0
    vertex 5.360483202694422 64.17702292156325 7.049916206369744e-16
    vertex 0.10703534853410156 64.17702292156325 0.0
  endloop
endfacet
facet normal 0.0 -1.0 0.0
  outer loop
    vertex 0.10703534853410156 64.17702292156325 0.0
    vertex 5.360483202694422 64.17702292156325 7.049916206369744e-16
    vertex 0.10703534853410226 64.17702292156325 1.7000000000000004
  endloop
endfacet
facet normal 0.0 -1.0 0.0
  outer loop
    vertex 0.10703534853410226 64.17702292156325 1.7000000000000004
    vertex 5.360483202694422 64.17702292156325 7.049916206369744e-16
    vertex 27.30703534853401 64.17702292156325 1.7000000000000004
  endloop
endfacet
facet normal 0.0 -1.0 0.0
  outer loop
    vertex 0.10703534853410226 64.17702292156325 1.7000000000000004
    vertex 27.30703534853401 64.17702292156325 1.7000000000000004
    vertex 25.30703534853401 64.17702292156325 1.7000000000000004
  endloop
endfacet
facet normal 0.0 -1.0 0.0
  outer loop
    vertex 0.10703534853410226 64.17702292156325 1.7000000000000004
    vertex 25.30703534853401 64.17702292156325 1.7000000000000004
    vertex 2.1070353485341022 64.17702292156325 1.7000000000000004
  endloop
endfacet
facet normal 0.0 -1.0 0.0
  outer loop
    vertex 27.30703534853401 64.17702292156325 -1.5000000000000007
    vertex 13.7070353485341 64.17702292156325 -3.499999999999995
    vertex 27.30703534853401 64.17702292156325 -3.499999999999995
  endloop
endfacet
facet normal 0.0 -1.0 0.0
  outer loop
    vertex 13.7070353485341 64.17702292156325 -3.499999999999995
    vertex 27.30703534853401 64.17702292156325 -1.5000000000000007
    vertex 26.307035348534008 64.17702292156325 -1.5000000000000007
  endloop
endfacet
facet normal 0.0 -1.0 0.0
  outer loop
    vertex 13.7070353485341 64.17702292156325 -3.499999999999995
    vertex 26.307035348534008 64.17702292156325 -1.5000000000000007
    vertex 13.7070353485341 64.17702292156325 7.049916206369744e-16
  endloop
endfacet
facet normal 0.0 -1.0 0.0
  outer loop
    vertex 13.7070353485341 64.17702292156325 7.049916206369744e-16
    vertex 26.307035348534008 64.17702292156325 -1.5000000000000007
    vertex 26.307035348534008 64.17702292156325 0.0
  endloop
endfacet
facet normal 0.0 -1.0 0.0
  outer loop
    vertex 0.10703534853410156 64.17702292156325 -1.5000000000000007
    vertex 0.10703534853410226 64.17702292156325 -3.499999999999995
    vertex 1.1070353485341047 64.17702292156325 -1.5000000000000007
  endloop
endfacet
facet normal 0.0 0.0 -1.0
  outer loop
    vertex 27.30703534853401 64.17702292156325 -1.5000000000000007
    vertex 26.307035348534008 63.67702292156326 -1.5000000000000007
    vertex 26.307035348534008 64.17702292156325 -1.5000000000000007
  endloop
endfacet
facet normal 0.0 0.0 -1.0
  outer loop
    vertex 26.307035348534008 63.67702292156326 -1.5000000000000007
    vertex 27.30703534853401 64.17702292156325 -1.5000000000000007
    vertex 27.30703534853401 63.67702292156326 -1.5000000000000007
  endloop
endfacet
facet normal 1.0 0.0 0.0
  outer loop
    vertex 1.1070353485341047 64.17702292156325 -1.5000000000000007
    vertex 1.1070353485341047 63.67702292156326 0.0
    vertex 1.1070353485341047 63.67702292156326 -1.5000000000000007
  endloop
endfacet
facet normal 1.0 0.0 0.0
  outer loop
    vertex 1.1070353485341047 63.67702292156326 0.0
    vertex 1.1070353485341047 64.17702292156325 -1.5000000000000007
    vertex 1.1070353485341047 64.17702292156325 0.0
  endloop
endfacet
facet normal 0.0 0.0 1.0
  outer loop
    vertex 1.1070353485341047 63.67702292156326 0.0
    vertex 0.10703534853410156 64.17702292156325 0.0
    vertex 0.10703534853410156 63.67702292156326 0.0
  endloop
endfacet
facet normal 0.0 0.0 1.0
  outer loop
    vertex 0.10703534853410156 64.17702292156325 0.0
    vertex 1.1070353485341047 63.67702292156326 0.0
    vertex 1.1070353485341047 64.17702292156325 0.0
  endloop
endfacet
facet normal 0.0 0.0 -1.0
  outer loop
    vertex 1.1070353485341047 64.17702292156325 -1.5000000000000007
    vertex 0.10703534853410156 63.67702292156326 -1.5000000000000007
    vertex 0.10703534853410156 64.17702292156325 -1.5000000000000007
  endloop
endfacet
facet normal 0.0 0.0 -1.0
  outer loop
    vertex 0.10703534853410156 63.67702292156326 -1.5000000000000007
    vertex 1.1070353485341047 64.17702292156325 -1.5000000000000007
    vertex 1.1070353485341047 63.67702292156326 -1.5000000000000007
  endloop
endfacet
facet normal 0.0 -1.0 0.0
  outer loop
    vertex 1.1070353485341047 63.67702292156326 0.0
    vertex 0.10703534853410156 63.67702292156326 -1.5000000000000007
    vertex 1.1070353485341047 63.67702292156326 -1.5000000000000007
  endloop
endfacet
facet normal 0.0 -1.0 0.0
  outer loop
    vertex 0.10703534853410156 63.67702292156326 -1.5000000000000007
    vertex 1.1070353485341047 63.67702292156326 0.0
    vertex 0.10703534853410156 63.67702292156326 0.0
  endloop
endfacet
facet normal -1.0 0.0 0.0
  outer loop
    vertex 26.307035348534008 64.17702292156325 0.0
    vertex 26.307035348534008 63.67702292156326 -1.5000000000000007
    vertex 26.307035348534008 63.67702292156326 0.0
  endloop
endfacet
facet normal -1.0 0.0 0.0
  outer loop
    vertex 26.307035348534008 63.67702292156326 -1.5000000000000007
    vertex 26.307035348534008 64.17702292156325 0.0
    vertex 26.307035348534008 64.17702292156325 -1.5000000000000007
  endloop
endfacet
facet normal -1.0 0.0 0.0
  outer loop
    vertex 26.307035348534015 63.17702292156326 4.900000000000001
    vertex 26.307035348534015 53.55488944157863 1.7000000000000004
    vertex 26.307035348534015 53.55488944157863 4.900000000000001
  endloop
endfacet
facet normal -1.0 0.0 0.0
  outer loop
    vertex 26.307035348534015 53.55488944157863 1.7000000000000004
    vertex 26.307035348534015 63.17702292156326 4.900000000000001
    vertex 26.307035348534015 63.17702292156326 1.7000000000000004
  endloop
endfacet
facet normal 1.0 -2.1962355783083308e-17 0.0
  outer loop
    vertex 1.1070353485341022 63.17702292156326 1.7000000000000004
    vertex 1.1070353485341007 -0.022977078436765018 4.900000000000001
    vertex 1.1070353485341007 -0.022977078436765018 1.7000000000000004
  endloop
endfacet
facet normal 1.0 -2.1962355783083308e-17 0.0
  outer loop
    vertex 1.1070353485341007 -0.022977078436765018 4.900000000000001
    vertex 1.1070353485341022 63.17702292156326 1.7000000000000004
    vertex 1.1070353485341022 63.17702292156326 4.900000000000001
  endloop
endfacet
facet normal -1.0 0.0 0.0
  outer loop
    vertex 26.307035348534015 28.569335737861966 4.900000000000001
    vertex 26.307035348534015 -0.022977078436765018 1.7000000000000004
    vertex 26.307035348534015 -0.022977078436765018 4.900000000000001
  endloop
endfacet
facet normal -1.0 0.0 0.0
  outer loop
    vertex 26.307035348534015 -0.022977078436765018 1.7000000000000004
    vertex 26.307035348534015 28.569335737861966 4.900000000000001
    vertex 26.307035348534015 28.569335737861966 1.7000000000000004
  endloop
endfacet
endsolid blemqttproxy_3d
